<svg width="128" height="128" viewBox="0 0 128 128" fill="none" xmlns="http://www.w3.org/2000/svg">
<path fill-rule="evenodd" clip-rule="evenodd" d="M44.8 70.4C44.8 56.2615 56.2615 44.8 70.4 44.8H102.4C116.538 44.8 128 56.2615 128 70.4V102.4C128 116.538 116.538 128 102.4 128H70.4C56.2615 128 44.8 116.538 44.8 102.4V70.4ZM70.4 57.6C63.3307 57.6 57.6 63.3307 57.6 70.4V102.4C57.6 109.469 63.3307 115.2 70.4 115.2H102.4C109.469 115.2 115.2 109.469 115.2 102.4V70.4C115.2 63.3307 109.469 57.6 102.4 57.6H70.4Z" fill="white"/>
<path fill-rule="evenodd" clip-rule="evenodd" d="M0 25.6C0 11.4615 11.4615 0 25.6 0H57.6C71.7385 0 83.2 11.4615 83.2 25.6V26.9333C83.2 30.468 80.3346 33.3333 76.8 33.3333C73.2654 33.3333 70.4 30.468 70.4 26.9333V25.6C70.4 18.5308 64.6692 12.8 57.6 12.8H25.6C18.5308 12.8 12.8 18.5308 12.8 25.6V57.6C12.8 64.6692 18.5308 70.4 25.6 70.4H26.9333C30.468 70.4 33.3333 73.2654 33.3333 76.8C33.3333 80.3346 30.468 83.2 26.9333 83.2H25.6C11.4615 83.2 0 71.7385 0 57.6V25.6Z" fill="white"/>
</svg>
