<svg width="128" height="128" viewBox="0 0 128 128" fill="none" xmlns="http://www.w3.org/2000/svg">
<path fill-rule="evenodd" clip-rule="evenodd" d="M18.0084 18.0084C20.6863 15.3305 25.028 15.3305 27.7059 18.0084L109.992 100.294C112.669 102.972 112.669 107.314 109.992 109.992C107.314 112.669 102.972 112.669 100.294 109.992L18.0084 27.7059C15.3305 25.028 15.3305 20.6863 18.0084 18.0084Z" fill="white"/>
<path fill-rule="evenodd" clip-rule="evenodd" d="M109.992 18.0084C107.314 15.3305 102.972 15.3305 100.294 18.0084L18.0084 100.294C15.3305 102.972 15.3305 107.314 18.0084 109.992C20.6863 112.669 25.028 112.669 27.7059 109.992L109.992 27.7059C112.669 25.028 112.669 20.6863 109.992 18.0084Z" fill="white"/>
</svg>
